<svg width="256" height="256" viewBox="0 0 256 256" fill="none" xmlns="http://www.w3.org/2000/svg" role="img" aria-labelledby="title desc">
  <title id="title">rust-nostr logo</title>
  <desc id="desc">A purple Rust-style gear with a white center and purple N.</desc>
  <defs>
    <linearGradient id="purple" x1="42" y1="24" x2="214" y2="232" gradientUnits="userSpaceOnUse">
      <stop stop-color="#B875FF"/>
      <stop offset="0.46" stop-color="#7C3AED"/>
      <stop offset="1" stop-color="#4C1D95"/>
    </linearGradient>
    <filter id="shadow" x="16" y="15" width="224" height="226" color-interpolation-filters="sRGB" filterUnits="userSpaceOnUse">
      <feFlood flood-opacity="0" result="BackgroundImageFix"/>
      <feColorMatrix in="SourceAlpha" result="hardAlpha" type="matrix" values="0 0 0 0 0 0 0 0 0 0 0 0 0 0 0 0 0 0 127 0"/>
      <feOffset dy="10"/>
      <feGaussianBlur stdDeviation="12"/>
      <feComposite in2="hardAlpha" operator="out"/>
      <feColorMatrix type="matrix" values="0 0 0 0 0.16 0 0 0 0 0.04 0 0 0 0 0.33 0 0 0 0.28 0"/>
      <feBlend in2="BackgroundImageFix" result="effect1_dropShadow"/>
      <feBlend in="SourceGraphic" in2="effect1_dropShadow" result="shape"/>
    </filter>
  </defs>
  <g filter="url(#shadow)">
    <g fill="url(#purple)">
      <rect x="120" y="19" width="16" height="32" rx="4"/>
      <rect x="120" y="19" width="16" height="32" rx="4" transform="rotate(15 128 128)"/>
      <rect x="120" y="19" width="16" height="32" rx="4" transform="rotate(30 128 128)"/>
      <rect x="120" y="19" width="16" height="32" rx="4" transform="rotate(45 128 128)"/>
      <rect x="120" y="19" width="16" height="32" rx="4" transform="rotate(60 128 128)"/>
      <rect x="120" y="19" width="16" height="32" rx="4" transform="rotate(75 128 128)"/>
      <rect x="120" y="19" width="16" height="32" rx="4" transform="rotate(90 128 128)"/>
      <rect x="120" y="19" width="16" height="32" rx="4" transform="rotate(105 128 128)"/>
      <rect x="120" y="19" width="16" height="32" rx="4" transform="rotate(120 128 128)"/>
      <rect x="120" y="19" width="16" height="32" rx="4" transform="rotate(135 128 128)"/>
      <rect x="120" y="19" width="16" height="32" rx="4" transform="rotate(150 128 128)"/>
      <rect x="120" y="19" width="16" height="32" rx="4" transform="rotate(165 128 128)"/>
      <rect x="120" y="19" width="16" height="32" rx="4" transform="rotate(180 128 128)"/>
      <rect x="120" y="19" width="16" height="32" rx="4" transform="rotate(195 128 128)"/>
      <rect x="120" y="19" width="16" height="32" rx="4" transform="rotate(210 128 128)"/>
      <rect x="120" y="19" width="16" height="32" rx="4" transform="rotate(225 128 128)"/>
      <rect x="120" y="19" width="16" height="32" rx="4" transform="rotate(240 128 128)"/>
      <rect x="120" y="19" width="16" height="32" rx="4" transform="rotate(255 128 128)"/>
      <rect x="120" y="19" width="16" height="32" rx="4" transform="rotate(270 128 128)"/>
      <rect x="120" y="19" width="16" height="32" rx="4" transform="rotate(285 128 128)"/>
      <rect x="120" y="19" width="16" height="32" rx="4" transform="rotate(300 128 128)"/>
      <rect x="120" y="19" width="16" height="32" rx="4" transform="rotate(315 128 128)"/>
      <rect x="120" y="19" width="16" height="32" rx="4" transform="rotate(330 128 128)"/>
      <rect x="120" y="19" width="16" height="32" rx="4" transform="rotate(345 128 128)"/>
      <circle cx="128" cy="128" r="91"/>
    </g>
    <circle cx="128" cy="128" r="68" fill="#FFFFFF"/>
    <circle cx="128" cy="38" r="11" fill="#FFFFFF"/>
    <circle cx="128" cy="218" r="11" fill="#FFFFFF"/>
    <circle cx="38" cy="128" r="11" fill="#FFFFFF"/>
    <circle cx="218" cy="128" r="11" fill="#FFFFFF"/>
    <circle cx="64" cy="64" r="8" fill="#FFFFFF"/>
    <circle cx="192" cy="64" r="8" fill="#FFFFFF"/>
    <circle cx="64" cy="192" r="8" fill="#FFFFFF"/>
    <circle cx="192" cy="192" r="8" fill="#FFFFFF"/>
    <path d="M82 178V78h31l42 61V78h29v100h-31l-42-61v61H82Z" fill="url(#purple)"/>
  </g>
</svg>
